<?xml version="1.0" encoding="iso-8859-1"?>
<!-- Uploaded to: SVG Repo, www.svgrepo.com, Generator: SVG Repo Mixer Tools -->
<svg fill="#000000" height="800px" width="800px" version="1.1" id="Layer_1" xmlns="http://www.w3.org/2000/svg" xmlns:xlink="http://www.w3.org/1999/xlink" 
	 viewBox="0 0 512.035 512.035" xml:space="preserve">
<g transform="translate(1 1)">
	<g>
		<g>
			<path d="M374.17,81.983c-0.328-1.149-0.919-2.131-1.773-3.083c-0.151-0.172-0.308-0.341-0.473-0.506l-76.8-76.8
				c-0.165-0.165-0.334-0.322-0.506-0.473c-0.952-0.854-1.934-1.445-3.083-1.773c-0.915-0.289-1.872-0.401-2.851-0.314H7.551
				c-5.12,0-8.533,3.413-8.533,8.533v494.933c0,5.12,3.413,8.533,8.533,8.533h358.4c5.12,0,8.533-3.413,8.533-8.533V84.835
				C374.57,83.856,374.459,82.898,374.17,81.983z M345.471,75.835h-47.787V28.048L345.471,75.835z M16.084,493.968V16.101h264.533
				v68.267c0,5.12,3.413,8.533,8.533,8.533h68.267v401.067H16.084z"/>
			<path d="M289.151,220.901h-204.8c-5.12,0-8.533,3.413-8.533,8.533s3.413,8.533,8.533,8.533h204.8c5.12,0,8.533-3.413,8.533-8.533
				S294.271,220.901,289.151,220.901z"/>
			<path d="M255.017,289.168c5.12,0,8.533-3.413,8.533-8.533s-3.413-8.533-8.533-8.533H118.484c-5.12,0-8.533,3.413-8.533,8.533
				s3.413,8.533,8.533,8.533H255.017z"/>
			<path d="M289.151,323.301h-204.8c-5.12,0-8.533,3.413-8.533,8.533c0,5.12,3.413,8.533,8.533,8.533h204.8
				c5.12,0,8.533-3.413,8.533-8.533C297.684,326.715,294.271,323.301,289.151,323.301z"/>
			<path d="M255.017,374.501H118.484c-5.12,0-8.533,3.413-8.533,8.533s3.413,8.533,8.533,8.533h136.533
				c5.12,0,8.533-3.413,8.533-8.533S260.137,374.501,255.017,374.501z"/>
			<path d="M118.484,186.768h136.533c5.12,0,8.533-3.413,8.533-8.533s-3.413-8.533-8.533-8.533H118.484
				c-5.12,0-8.533,3.413-8.533,8.533S113.364,186.768,118.484,186.768z"/>
			<path d="M502.484,41.701V20.368c0-11.947-9.387-21.333-21.333-21.333h-8.533c-11.947,0-21.333,9.387-21.333,21.333v21.333
				c-5.12,0-8.533,3.413-8.533,8.533v2.987l-29.867,14.933c-0.69,0.345-1.306,0.835-1.843,1.424
				c-1.539,1.496-2.424,3.654-2.424,6.256v110.933c0,5.12,3.413,8.533,8.533,8.533s8.533-3.413,8.533-8.533V80.101l17.067-8.533
				v226.133v136.533c0,2.287,0.685,4.229,1.894,5.683l16.026,48.077c0.853,3.413,4.267,5.973,7.68,5.973v8.533
				c0,5.12,3.413,8.533,8.533,8.533s8.533-3.413,8.533-8.533v-8.533c3.413,0,6.827-2.56,7.68-5.973l16.026-48.077
				c1.21-1.454,1.894-3.396,1.894-5.683V297.701V50.235C511.017,45.115,507.604,41.701,502.484,41.701z M459.817,58.768h34.133
				v230.4h-34.133V58.768z M493.951,323.301h-34.133v-17.067h34.133V323.301z M459.817,357.435v-17.067h34.133v17.067H459.817z
				 M493.951,374.501v17.067h-34.133v-17.067H493.951z M459.817,425.701v-17.067h34.133v17.067H459.817z M468.351,20.368
				c0-2.56,1.707-4.267,4.267-4.267h8.533c2.56,0,4.267,1.707,4.267,4.267v21.333h-17.067V20.368z M479.444,476.901h-5.12
				l-11.093-34.133h27.307L479.444,476.901z"/>
		</g>
	</g>
</g>
</svg>